<svg width="60" height="60" viewBox="0 0 60 60" fill="none" xmlns="http://www.w3.org/2000/svg">
<path d="M47.0686 42.581V33.7743L32.7587 42.1343C31.7348 42.7369 30.4749 42.7622 29.4172 42.2355L13.9065 34.4485V42.5726C13.9065 42.5726 20.8086 50.191 30.4917 50.191C42.6694 50.1952 47.0686 42.581 47.0686 42.581Z" fill="#263273"/>
<path d="M1 51L8.80383 48.8257C8.70691 47.4183 8.39931 46.15 8.14649 45.2946C8.72798 44.7215 9.0735 43.9378 9.0735 43.0571C9.0735 41.7003 8.20548 40.5205 6.99192 40.078L7.04249 28.0647L25.7135 21.5966C25.8779 20.8044 26.6743 20.0754 26.6743 20.0754C26.6111 20.2903 26.7332 22.8986 30.6815 22.8986C32.9485 22.8986 34.7857 22.1739 34.7857 20.6949C34.7857 20.4252 34.7267 20.1302 34.6129 19.8268C35.2492 20.6148 35.6369 21.5039 35.6369 22.2287C35.6369 23.9479 33.4963 24.7864 30.8585 24.7864C29.0719 24.7864 27.2852 24.4156 26.3287 23.636L9.1325 29.5943L29.5354 39.8126C30.593 40.3393 31.8487 40.3013 32.8642 39.7072L56.6507 25.844C57.7758 25.1993 58.4416 23.9942 58.3868 22.7132C58.3447 21.428 57.6073 20.2693 56.4611 19.6962L31.8277 7.37104C30.77 6.84011 29.5227 6.88225 28.503 7.47638L4.71229 21.3396C3.60408 21.9843 2.9341 23.1262 2.98045 24.4156C3.02259 25.7008 3.75999 27.066 4.91034 27.3736L4.85977 40.019C3.62937 40.4573 2.74027 41.6539 2.74027 43.0276C2.74027 44.0558 3.22485 44.9701 3.97489 45.5559C3.73471 47.3003 2.92567 48.5518 1.96916 49.4493C1.50565 49.8749 1.17698 50.4101 1 51Z" fill="#263273"/>
</svg>
