<!DOCTYPE svg PUBLIC "-//W3C//DTD SVG 1.1//EN" "http://www.w3.org/Graphics/SVG/1.1/DTD/svg11.dtd">
<!-- Uploaded to: SVG Repo, www.svgrepo.com, Transformed by: SVG Repo Mixer Tools -->
<svg fill="#4545A1" height="64px" width="64px" version="1.1" id="Layer_1" xmlns="http://www.w3.org/2000/svg" xmlns:xlink="http://www.w3.org/1999/xlink" viewBox="-25.6 -25.6 563.20 563.20" xml:space="preserve">
<g id="SVGRepo_bgCarrier" stroke-width="0"/>
<g id="SVGRepo_tracerCarrier" stroke-linecap="round" stroke-linejoin="round"/>
<g id="SVGRepo_iconCarrier"> <g> <g> <g> <path d="M265.387,218.944c-3.712-6.912-15.083-6.912-18.795,0L97.259,496.277c-1.771,3.307-1.685,7.317,0.235,10.539 c1.941,3.2,5.419,5.184,9.173,5.184h42.667c3.968,0,7.595-2.197,9.429-5.717L256,321.557l97.237,184.725 c1.835,3.52,5.461,5.717,9.429,5.717h42.667c3.755,0,7.232-1.984,9.173-5.184c1.92-3.221,2.005-7.232,0.235-10.539 L265.387,218.944z"/> <path d="M256,384c-17.664,0-32,14.336-32,32c0,17.664,14.336,32,32,32s32-14.336,32-32C288,398.336,273.664,384,256,384z"/> <path d="M455.808,193.088c-4.949-32.043-17.472-62.208-36.693-88.427c2.965-4.928,4.651-10.517,4.651-16.427 c0-8.533-3.328-16.576-9.365-22.635c-10.133-10.133-26.347-11.243-38.528-4.373c-26.347-19.456-56.747-32.107-88.96-37.056 C283.413,10.325,270.933,0,256,0s-27.413,10.325-30.912,24.171c-32.213,4.949-62.592,17.6-88.96,37.056 c-12.181-6.891-28.373-5.781-38.528,4.373c-6.037,6.037-9.365,14.08-9.365,22.635c0,5.888,1.685,11.499,4.651,16.405 c-19.221,26.219-31.765,56.405-36.693,88.427C42.325,196.587,32,209.067,32,224s10.325,27.413,24.192,30.912 c4.949,32.043,17.472,62.208,36.693,88.427c-2.965,4.928-4.651,10.517-4.651,16.427c0,8.533,3.328,16.576,9.365,22.635 c6.037,6.059,14.08,9.365,22.635,9.365s16.576-3.328,22.635-9.365c6.059-6.037,9.365-14.08,9.365-22.635 s-3.328-16.576-9.365-22.635c-8.704-8.704-22.037-10.901-33.365-7.061c-16.619-22.912-27.883-49.088-32.405-76.949 c8.085-3.648,14.293-10.56,17.152-19.051c0.192-0.555,0.363-1.109,0.533-1.685C95.488,229.696,96,226.923,96,224 s-0.512-5.696-1.259-8.384c-0.171-0.576-0.341-1.131-0.533-1.685c-2.837-8.491-9.045-15.424-17.152-19.072 c4.48-27.712,15.381-53.931,31.872-76.757c3.563,1.344,7.36,2.133,11.285,2.133c5.056,0,9.877-1.301,14.251-3.499 c0.555-0.277,1.109-0.576,1.643-0.896c2.304-1.344,4.501-2.88,6.464-4.779c0.085-0.085,0.171-0.107,0.256-0.192 c0.064-0.064,0.085-0.149,0.149-0.213c1.963-1.984,3.52-4.224,4.864-6.592c0.299-0.512,0.555-1.003,0.811-1.536 c2.219-4.416,3.52-9.237,3.52-14.315c0-3.925-0.789-7.723-2.133-11.285c22.827-16.491,49.088-27.371,76.757-31.872 c1.259,2.816,2.987,5.355,4.971,7.659c3.733,4.331,8.555,7.637,14.101,9.493c0.555,0.192,1.109,0.363,1.685,0.533 C250.304,63.488,253.077,64,256,64s5.696-0.512,8.405-1.259c0.576-0.171,1.131-0.341,1.685-0.533 c5.547-1.856,10.368-5.141,14.101-9.493c1.984-2.304,3.691-4.843,4.971-7.659c27.691,4.48,53.931,15.36,76.757,31.872 c-1.344,3.563-2.133,7.36-2.133,11.285c0,5.056,1.301,9.899,3.52,14.293c0.277,0.533,0.555,1.045,0.853,1.579 c1.344,2.325,2.88,4.544,4.8,6.507c0.085,0.085,0.107,0.171,0.192,0.256c0.064,0.064,0.149,0.085,0.213,0.149 c1.984,1.941,4.203,3.499,6.549,4.843c0.533,0.299,1.045,0.576,1.579,0.832c4.395,2.219,9.237,3.52,14.315,3.52 c3.925,0,7.723-0.789,11.285-2.133c16.469,22.805,27.371,49.067,31.872,76.757c-8.085,3.648-14.315,10.581-17.152,19.072 c-0.192,0.555-0.363,1.109-0.512,1.664C416.512,218.283,416,221.077,416,224s0.512,5.717,1.259,8.405 c0.149,0.576,0.32,1.109,0.512,1.664c2.837,8.491,9.045,15.424,17.152,19.072c-4.523,27.84-15.787,54.037-32.405,76.949 c-11.328-3.84-24.661-1.643-33.365,7.061c-6.037,6.037-9.365,14.08-9.365,22.635s3.328,16.576,9.365,22.635 c6.037,6.059,14.08,9.365,22.635,9.365s16.576-3.328,22.635-9.365c6.059-6.037,9.365-14.08,9.365-22.635 c0-5.888-1.685-11.499-4.651-16.427c19.221-26.219,31.765-56.405,36.693-88.427c13.845-3.52,24.171-16,24.171-30.933 C480,209.067,469.675,196.587,455.808,193.088z"/> <path d="M322.859,277.675c1.749,1.067,3.691,1.579,5.611,1.579c3.563,0,7.061-1.792,9.088-5.056 C347.008,258.859,352,241.493,352,224c0-52.928-43.072-96-96-96s-96,43.072-96,96c0,17.493,4.992,34.859,14.464,50.197 c3.115,5.035,9.685,6.528,14.677,3.477c4.992-3.115,6.571-9.664,3.477-14.677c-7.381-11.968-11.285-25.451-11.285-38.997 c0-41.173,33.493-74.667,74.667-74.667s74.667,33.493,74.667,74.667c0,13.547-3.904,27.029-11.285,38.976 C316.288,268.011,317.845,274.56,322.859,277.675z"/> </g> </g> </g> </g>
</svg>