<!DOCTYPE svg PUBLIC "-//W3C//DTD SVG 1.1//EN" "http://www.w3.org/Graphics/SVG/1.1/DTD/svg11.dtd">
<!-- Uploaded to: SVG Repo, www.svgrepo.com, Transformed by: SVG Repo Mixer Tools -->
<svg fill="#1A364D" height="64px" width="64px" version="1.1" id="Layer_1" xmlns="http://www.w3.org/2000/svg" xmlns:xlink="http://www.w3.org/1999/xlink" viewBox="0 0 512.002 512.002" xml:space="preserve">
<g id="SVGRepo_bgCarrier" stroke-width="0"/>
<g id="SVGRepo_tracerCarrier" stroke-linecap="round" stroke-linejoin="round"/>
<g id="SVGRepo_iconCarrier"> <g> <g> <path d="M500.626,323.585c-18.202-17.161-52.745-16.521-56.917-16.393c-97.545-3.209-144.299-38.519-153.993-46.822 c-1.732-13.978-11.827-25.284-25.182-28.757v-18.278c0-4.719-3.823-8.533-8.533-8.533c-9.412,0-17.067-7.654-17.067-17.067 c0-9.412,7.654-17.067,17.067-17.067c9.412,0,17.067,7.654,17.067,17.067c0,4.719,3.823,8.533,8.533,8.533 s8.533-3.814,8.533-8.533c0-18.825-15.309-34.133-34.133-34.133s-34.133,15.309-34.133,34.133c0,15.872,10.897,29.261,25.6,33.05 v10.829c-13.363,3.473-23.467,14.797-25.182,28.783c-9.651,8.371-55.927,43.639-153.634,46.814 c-1.536-0.051-38.289-1.51-57.276,16.375c-7.398,6.963-11.221,15.77-11.375,26.155c-0.034,2.287,0.853,4.497,2.458,6.118 c1.604,1.63,3.789,2.543,6.076,2.543h494.933c2.287,0,4.471-0.913,6.076-2.543c1.604-1.621,2.492-3.831,2.458-6.118 C511.847,339.355,508.024,330.548,500.626,323.585z M256.001,281.601c-9.412,0-17.067-7.654-17.067-17.067 c0-9.412,7.654-17.067,17.067-17.067c9.412,0,17.067,7.654,17.067,17.067C273.068,273.947,265.413,281.601,256.001,281.601z"/> </g> </g> </g>
</svg>