<svg width="377" height="73" viewBox="0 0 377 73" fill="none" xmlns="http://www.w3.org/2000/svg">
<g clip-path="url(#clip0_161_2)">
<path d="M73.1748 33.6709V36.9521H61.4854V47.6162H66.8994C68.9365 47.6162 70.6455 47.6025 72.0264 47.5752C73.4072 47.5479 74.5078 47.459 75.3281 47.3086V51H57.2812C57.4316 50.1797 57.5205 48.9971 57.5479 47.4521C57.5752 45.8936 57.5889 44.1025 57.5889 42.0791V29.9795C57.5889 27.9561 57.5752 26.1719 57.5479 24.627C57.5205 23.0684 57.4316 21.8789 57.2812 21.0586H74.7129V24.4424H61.4854V33.6709H73.1748ZM88.7812 43.2891L83.4287 51H78.8145C79.375 50.2617 79.8467 49.6465 80.2295 49.1543C80.6123 48.6484 80.9473 48.1973 81.2344 47.8008C81.5352 47.4043 81.8086 47.0283 82.0547 46.6729C82.3145 46.3174 82.6016 45.9141 82.916 45.4629L86.5664 40.1719L83.3262 35.6191C82.9844 35.1406 82.6699 34.71 82.3828 34.3271C82.0957 33.9443 81.7949 33.5547 81.4805 33.1582C81.166 32.7617 80.8105 32.3242 80.4141 31.8457C80.0312 31.3535 79.5664 30.7656 79.0195 30.082H83.7363L89.0684 37.4854L94.0928 30.082H98.707C98.1738 30.7656 97.7227 31.3535 97.3535 31.8457C96.9844 32.3242 96.6494 32.7686 96.3486 33.1787C96.0479 33.5752 95.7607 33.9648 95.4873 34.3477C95.2275 34.7305 94.9336 35.1543 94.6055 35.6191L91.2627 40.541L94.8105 45.4629C95.1797 45.9824 95.501 46.4268 95.7744 46.7959C96.0479 47.1514 96.335 47.5205 96.6357 47.9033C96.9365 48.2861 97.2646 48.7168 97.6201 49.1953C97.9893 49.6738 98.4541 50.2754 99.0146 51H94.2979L88.7812 43.2891ZM107.033 45.668C107.73 46.1602 108.332 46.5703 108.838 46.8984C109.357 47.2129 109.829 47.4658 110.253 47.6572C110.677 47.835 111.08 47.958 111.463 48.0264C111.859 48.0947 112.297 48.1289 112.775 48.1289C113.5 48.1289 114.19 47.958 114.847 47.6162C115.517 47.2744 116.104 46.7822 116.61 46.1396C117.13 45.4834 117.54 44.6973 117.841 43.7812C118.155 42.8516 118.312 41.8057 118.312 40.6436C118.312 39.5088 118.203 38.4834 117.984 37.5674C117.779 36.6377 117.472 35.8516 117.062 35.209C116.651 34.5527 116.152 34.0469 115.564 33.6914C114.99 33.3359 114.334 33.1582 113.596 33.1582C113.008 33.1582 112.406 33.2881 111.791 33.5479C111.176 33.8076 110.574 34.1904 109.986 34.6963C109.412 35.2021 108.872 35.8379 108.366 36.6035C107.86 37.3555 107.416 38.2236 107.033 39.208V45.668ZM105.905 30.082C106.056 30.4375 106.206 30.9434 106.356 31.5996C106.507 32.2422 106.63 33.0352 106.726 33.9785C107.204 33.3496 107.724 32.7686 108.284 32.2354C108.858 31.7021 109.46 31.251 110.089 30.8818C110.731 30.499 111.401 30.2051 112.099 30C112.81 29.7812 113.548 29.6719 114.313 29.6719C115.476 29.6719 116.535 29.9316 117.492 30.4512C118.463 30.957 119.283 31.6748 119.953 32.6045C120.637 33.5205 121.163 34.6143 121.532 35.8857C121.915 37.1436 122.106 38.5244 122.106 40.0283C122.106 41.7783 121.86 43.3643 121.368 44.7861C120.876 46.1943 120.206 47.3975 119.358 48.3955C118.524 49.3936 117.54 50.166 116.405 50.7129C115.271 51.2461 114.061 51.5127 112.775 51.5127C112.229 51.5127 111.709 51.458 111.217 51.3486C110.738 51.2393 110.267 51.0889 109.802 50.8975C109.351 50.7061 108.899 50.4736 108.448 50.2002C107.997 49.9131 107.525 49.5986 107.033 49.2568V54.0762C107.033 54.8965 107.04 55.6348 107.054 56.291C107.081 56.9609 107.115 57.5762 107.156 58.1367C107.197 58.6973 107.252 59.21 107.32 59.6748C107.389 60.1533 107.464 60.6113 107.546 61.0488H103.239V41.0537C103.239 39.7822 103.226 38.6064 103.198 37.5264C103.185 36.4326 103.144 35.4346 103.075 34.5322C103.007 33.6162 102.904 32.7891 102.768 32.0508C102.631 31.3125 102.446 30.6562 102.214 30.082H105.905ZM129.797 41.0537C129.838 42.2568 130.022 43.3027 130.351 44.1914C130.692 45.0801 131.15 45.8184 131.725 46.4062C132.312 46.9805 132.996 47.4111 133.775 47.6982C134.568 47.9854 135.43 48.1289 136.359 48.1289C137.686 48.1289 138.984 47.9785 140.256 47.6777C141.527 47.377 142.792 46.8438 144.05 46.0781L144.46 49.4619C143.735 49.8311 143.024 50.1455 142.327 50.4053C141.63 50.665 140.933 50.877 140.235 51.041C139.538 51.2051 138.827 51.3213 138.103 51.3896C137.392 51.4717 136.64 51.5127 135.847 51.5127C134.534 51.5127 133.283 51.2871 132.094 50.8359C130.904 50.3711 129.858 49.6943 128.956 48.8057C128.054 47.9033 127.336 46.7891 126.803 45.4629C126.27 44.1367 126.003 42.5986 126.003 40.8486C126.003 39.1533 126.229 37.6221 126.68 36.2549C127.145 34.874 127.801 33.6982 128.648 32.7275C129.496 31.7432 130.528 30.9912 131.745 30.4717C132.962 29.9385 134.329 29.6719 135.847 29.6719C136.968 29.6719 137.959 29.8086 138.82 30.082C139.682 30.3418 140.427 30.7109 141.056 31.1895C141.685 31.6543 142.211 32.2012 142.635 32.8301C143.059 33.459 143.394 34.1357 143.64 34.8604C143.899 35.585 144.084 36.3438 144.193 37.1367C144.303 37.916 144.357 38.6885 144.357 39.4541V40.2539C144.357 40.5957 144.351 40.8623 144.337 41.0537H129.797ZM135.539 32.748C134.035 32.748 132.805 33.1924 131.848 34.0811C130.891 34.9561 130.262 36.3232 129.961 38.1826H140.666C140.666 37.3076 140.536 36.5352 140.276 35.8652C140.03 35.1816 139.675 34.6074 139.21 34.1426C138.759 33.6777 138.219 33.3291 137.59 33.0967C136.961 32.8643 136.277 32.748 135.539 32.748ZM164.271 51V39.7207C164.271 38.4355 164.182 37.376 164.004 36.542C163.84 35.708 163.587 35.0518 163.245 34.5732C162.917 34.0811 162.493 33.7393 161.974 33.5479C161.468 33.3564 160.866 33.2607 160.169 33.2607C159.431 33.2607 158.706 33.4385 157.995 33.7939C157.298 34.1357 156.655 34.5869 156.067 35.1475C155.479 35.6943 154.96 36.3164 154.509 37.0137C154.058 37.7109 153.723 38.4082 153.504 39.1055V51H149.71V38.3877C149.71 36.3643 149.594 34.6553 149.361 33.2607C149.143 31.8525 148.917 30.793 148.685 30.082H152.376C152.458 30.3008 152.54 30.5879 152.622 30.9434C152.704 31.2852 152.779 31.6475 152.848 32.0303C152.916 32.4131 152.978 32.7891 153.032 33.1582L153.196 34.0811C154.495 32.5225 155.808 31.4014 157.134 30.7178C158.46 30.0205 159.848 29.6719 161.297 29.6719C163.484 29.6719 165.159 30.3896 166.321 31.8252C167.483 33.2471 168.064 35.3662 168.064 38.1826V51H164.271ZM187.26 34.9014C186.918 34.6963 186.528 34.4844 186.091 34.2656C185.653 34.0332 185.175 33.8213 184.655 33.6299C184.149 33.4385 183.603 33.2812 183.015 33.1582C182.44 33.0215 181.839 32.9531 181.21 32.9531C180.458 32.9531 179.822 33.0352 179.303 33.1992C178.797 33.3633 178.387 33.5752 178.072 33.835C177.771 34.0811 177.553 34.3682 177.416 34.6963C177.279 35.0107 177.211 35.3184 177.211 35.6191C177.211 35.9746 177.266 36.2891 177.375 36.5625C177.484 36.8359 177.71 37.0889 178.052 37.3213C178.407 37.5537 178.906 37.7793 179.549 37.998C180.191 38.2168 181.053 38.4492 182.133 38.6953C183.062 38.9004 183.938 39.167 184.758 39.4951C185.578 39.8096 186.296 40.2129 186.911 40.7051C187.526 41.1973 188.012 41.792 188.367 42.4893C188.723 43.1729 188.9 43.9932 188.9 44.9502C188.9 45.8799 188.695 46.7412 188.285 47.5342C187.875 48.3271 187.314 49.0244 186.604 49.626C185.893 50.2139 185.059 50.6719 184.102 51C183.145 51.3418 182.112 51.5127 181.005 51.5127C180.171 51.5127 179.364 51.4512 178.585 51.3281C177.819 51.2051 177.095 51.0342 176.411 50.8154C175.741 50.5967 175.126 50.3438 174.565 50.0566C174.005 49.7695 173.52 49.4688 173.109 49.1543L174.135 45.4629C174.6 45.873 175.119 46.249 175.693 46.5908C176.281 46.9326 176.883 47.2266 177.498 47.4727C178.113 47.7188 178.729 47.9102 179.344 48.0469C179.973 48.1699 180.561 48.2314 181.107 48.2314C181.709 48.2314 182.256 48.1562 182.748 48.0059C183.254 47.8418 183.685 47.6367 184.04 47.3906C184.409 47.1309 184.696 46.8369 184.901 46.5088C185.106 46.167 185.209 45.8184 185.209 45.4629C185.209 45.0801 185.127 44.7246 184.963 44.3965C184.812 44.0547 184.525 43.7334 184.102 43.4326C183.691 43.1182 183.117 42.8174 182.379 42.5303C181.654 42.2432 180.718 41.9561 179.569 41.6689C178.325 41.3682 177.307 41.0127 176.514 40.6025C175.734 40.1924 175.119 39.7412 174.668 39.249C174.23 38.7568 173.93 38.2236 173.766 37.6494C173.602 37.0752 173.52 36.4668 173.52 35.8242C173.52 35.5098 173.567 35.1406 173.663 34.7168C173.772 34.293 173.943 33.8555 174.176 33.4043C174.422 32.9395 174.736 32.4883 175.119 32.0508C175.516 31.5996 176.008 31.2031 176.596 30.8613C177.184 30.5059 177.874 30.2188 178.667 30C179.46 29.7812 180.376 29.6719 181.415 29.6719C182.153 29.6719 182.844 29.7197 183.486 29.8154C184.143 29.9111 184.737 30.041 185.271 30.2051C185.817 30.3555 186.316 30.5332 186.768 30.7383C187.219 30.9297 187.622 31.1211 187.978 31.3125L187.26 34.9014ZM196.406 41.0537C196.447 42.2568 196.632 43.3027 196.96 44.1914C197.302 45.0801 197.76 45.8184 198.334 46.4062C198.922 46.9805 199.605 47.4111 200.385 47.6982C201.178 47.9854 202.039 48.1289 202.969 48.1289C204.295 48.1289 205.594 47.9785 206.865 47.6777C208.137 47.377 209.401 46.8438 210.659 46.0781L211.069 49.4619C210.345 49.8311 209.634 50.1455 208.937 50.4053C208.239 50.665 207.542 50.877 206.845 51.041C206.147 51.2051 205.437 51.3213 204.712 51.3896C204.001 51.4717 203.249 51.5127 202.456 51.5127C201.144 51.5127 199.893 51.2871 198.703 50.8359C197.514 50.3711 196.468 49.6943 195.565 48.8057C194.663 47.9033 193.945 46.7891 193.412 45.4629C192.879 44.1367 192.612 42.5986 192.612 40.8486C192.612 39.1533 192.838 37.6221 193.289 36.2549C193.754 34.874 194.41 33.6982 195.258 32.7275C196.105 31.7432 197.138 30.9912 198.354 30.4717C199.571 29.9385 200.938 29.6719 202.456 29.6719C203.577 29.6719 204.568 29.8086 205.43 30.082C206.291 30.3418 207.036 30.7109 207.665 31.1895C208.294 31.6543 208.82 32.2012 209.244 32.8301C209.668 33.459 210.003 34.1357 210.249 34.8604C210.509 35.585 210.693 36.3438 210.803 37.1367C210.912 37.916 210.967 38.6885 210.967 39.4541V40.2539C210.967 40.5957 210.96 40.8623 210.946 41.0537H196.406ZM202.148 32.748C200.645 32.748 199.414 33.1924 198.457 34.0811C197.5 34.9561 196.871 36.3232 196.57 38.1826H207.275C207.275 37.3076 207.146 36.5352 206.886 35.8652C206.64 35.1816 206.284 34.6074 205.819 34.1426C205.368 33.6777 204.828 33.3291 204.199 33.0967C203.57 32.8643 202.887 32.748 202.148 32.748ZM249.029 21.0586V24.8525C248.209 24.6748 247.396 24.5654 246.589 24.5244C245.796 24.4697 244.935 24.4424 244.005 24.4424H239.083V42.0791C239.083 44.1025 239.104 45.8936 239.145 47.4521C239.199 48.9971 239.315 50.1797 239.493 51H234.776C234.954 50.1797 235.063 48.9971 235.104 47.4521C235.159 45.8936 235.187 44.1025 235.187 42.0791V24.4424H230.367C229.451 24.4424 228.59 24.4697 227.783 24.5244C226.977 24.5654 226.163 24.6748 225.343 24.8525V21.0586H249.029ZM253.562 51V38.3877C253.562 36.3643 253.445 34.6553 253.213 33.2607C252.994 31.8525 252.769 30.793 252.536 30.082H256.228C256.31 30.3008 256.392 30.5879 256.474 30.9434C256.556 31.2852 256.631 31.6475 256.699 32.0303C256.768 32.4131 256.829 32.7891 256.884 33.1582L257.048 34.0811C257.54 33.3701 258.073 32.7412 258.647 32.1943C259.235 31.6475 259.823 31.1895 260.411 30.8203C261.013 30.4375 261.594 30.1504 262.154 29.959C262.729 29.7676 263.248 29.6719 263.713 29.6719C264.574 29.6719 265.299 29.8633 265.887 30.2461C266.488 30.6152 266.974 31.1211 267.343 31.7637C267.726 32.3926 267.999 33.124 268.163 33.958C268.341 34.7783 268.43 35.6396 268.43 36.542L265.148 37.2598C265.121 36.7129 265.053 36.207 264.943 35.7422C264.848 35.2773 264.704 34.874 264.513 34.5322C264.335 34.1904 264.103 33.9307 263.815 33.7529C263.542 33.5615 263.2 33.4658 262.79 33.4658C262.353 33.4658 261.867 33.6299 261.334 33.958C260.801 34.2861 260.274 34.7168 259.755 35.25C259.249 35.7695 258.777 36.3711 258.34 37.0547C257.902 37.7246 257.574 38.4082 257.355 39.1055V51H253.562ZM285.554 33.3633C285.212 33.2949 284.713 33.2129 284.057 33.1172C283.414 33.0078 282.58 32.9531 281.555 32.9531C280.215 32.9531 279.094 33.2266 278.191 33.7734C277.303 34.3066 276.592 35.0244 276.059 35.9268C275.525 36.8154 275.143 37.8408 274.91 39.0029C274.691 40.165 274.582 41.3613 274.582 42.5918C274.582 43.3848 274.657 44.1162 274.808 44.7861C274.972 45.4424 275.19 46.0166 275.464 46.5088C275.737 46.9873 276.052 47.3633 276.407 47.6367C276.763 47.8965 277.146 48.0264 277.556 48.0264C278.007 48.0264 278.465 47.876 278.93 47.5752C279.408 47.2744 279.873 46.8711 280.324 46.3652C280.789 45.8457 281.24 45.251 281.678 44.5811C282.115 43.9111 282.525 43.207 282.908 42.4688C283.291 41.7168 283.646 40.958 283.975 40.1924C284.303 39.4268 284.583 38.7021 284.815 38.0186C285.048 37.3213 285.226 36.6855 285.349 36.1113C285.485 35.5371 285.554 35.0654 285.554 34.6963V33.3633ZM287.092 51C286.941 50.6719 286.805 50.1797 286.682 49.5234C286.572 48.8672 286.477 48.1631 286.395 47.4111C286.326 46.6455 286.271 45.9004 286.23 45.1758C286.189 44.4512 286.169 43.8633 286.169 43.4121V41.3613C285.731 42.5234 285.205 43.7061 284.59 44.9092C283.988 46.1123 283.298 47.2061 282.519 48.1904C281.739 49.1611 280.878 49.9609 279.935 50.5898C279.005 51.2051 278.007 51.5127 276.94 51.5127C276.079 51.5127 275.272 51.3213 274.521 50.9385C273.769 50.5557 273.112 49.9883 272.552 49.2363C272.005 48.4844 271.574 47.5547 271.26 46.4473C270.945 45.3262 270.788 44.041 270.788 42.5918C270.788 40.9648 271.007 39.3789 271.444 37.834C271.882 36.2754 272.552 34.8945 273.454 33.6914C274.356 32.4746 275.505 31.5039 276.899 30.7793C278.294 30.041 279.948 29.6719 281.862 29.6719C283.188 29.6719 284.508 29.7607 285.82 29.9385C287.133 30.1025 288.309 30.3213 289.348 30.5947V40.1309C289.348 42.7148 289.471 44.8887 289.717 46.6523C289.963 48.4023 290.284 49.8516 290.681 51H287.092ZM311.188 49.2568C310.669 49.6533 310.149 49.9951 309.63 50.2822C309.124 50.5557 308.591 50.7881 308.03 50.9795C307.47 51.1572 306.868 51.2871 306.226 51.3691C305.583 51.4648 304.879 51.5127 304.113 51.5127C302.732 51.5127 301.44 51.2734 300.237 50.7949C299.034 50.3027 297.981 49.5986 297.079 48.6826C296.177 47.7666 295.466 46.6592 294.946 45.3604C294.427 44.0615 294.167 42.5918 294.167 40.9512C294.167 39.4062 294.413 37.9502 294.905 36.583C295.411 35.2158 296.122 34.0195 297.038 32.9941C297.968 31.9688 299.089 31.1621 300.401 30.5742C301.728 29.9727 303.204 29.6719 304.831 29.6719C306.198 29.6719 307.374 29.8359 308.358 30.1641C309.356 30.4785 310.231 30.8955 310.983 31.415L310.266 35.1064C309.336 34.4229 308.413 33.9102 307.497 33.5684C306.581 33.2266 305.59 33.0557 304.523 33.0557C303.607 33.0557 302.753 33.2334 301.96 33.5889C301.181 33.9307 300.497 34.4297 299.909 35.0859C299.335 35.7422 298.884 36.5488 298.556 37.5059C298.228 38.4629 298.063 39.543 298.063 40.7461C298.063 41.8535 298.214 42.8584 298.515 43.7607C298.815 44.6631 299.246 45.4424 299.807 46.0986C300.367 46.7412 301.044 47.2402 301.837 47.5957C302.63 47.9512 303.525 48.1289 304.523 48.1289C305.768 48.1289 306.896 47.917 307.907 47.4932C308.919 47.0693 309.876 46.4609 310.778 45.668L311.188 49.2568ZM316.11 51V27.8262C316.11 25.6113 316.097 23.6768 316.069 22.0225C316.042 20.3545 315.953 19.0762 315.803 18.1875H319.904V38.6748L328.21 30.082H333.337L323.186 39.249L333.952 51H328.928L319.904 40.3359V51H316.11ZM340.125 41.0537C340.166 42.2568 340.351 43.3027 340.679 44.1914C341.021 45.0801 341.479 45.8184 342.053 46.4062C342.641 46.9805 343.324 47.4111 344.104 47.6982C344.896 47.9854 345.758 48.1289 346.688 48.1289C348.014 48.1289 349.312 47.9785 350.584 47.6777C351.855 47.377 353.12 46.8438 354.378 46.0781L354.788 49.4619C354.063 49.8311 353.353 50.1455 352.655 50.4053C351.958 50.665 351.261 50.877 350.563 51.041C349.866 51.2051 349.155 51.3213 348.431 51.3896C347.72 51.4717 346.968 51.5127 346.175 51.5127C344.862 51.5127 343.611 51.2871 342.422 50.8359C341.232 50.3711 340.187 49.6943 339.284 48.8057C338.382 47.9033 337.664 46.7891 337.131 45.4629C336.598 44.1367 336.331 42.5986 336.331 40.8486C336.331 39.1533 336.557 37.6221 337.008 36.2549C337.473 34.874 338.129 33.6982 338.977 32.7275C339.824 31.7432 340.856 30.9912 342.073 30.4717C343.29 29.9385 344.657 29.6719 346.175 29.6719C347.296 29.6719 348.287 29.8086 349.148 30.082C350.01 30.3418 350.755 30.7109 351.384 31.1895C352.013 31.6543 352.539 32.2012 352.963 32.8301C353.387 33.459 353.722 34.1357 353.968 34.8604C354.228 35.585 354.412 36.3438 354.521 37.1367C354.631 37.916 354.686 38.6885 354.686 39.4541V40.2539C354.686 40.5957 354.679 40.8623 354.665 41.0537H340.125ZM345.867 32.748C344.363 32.748 343.133 33.1924 342.176 34.0811C341.219 34.9561 340.59 36.3232 340.289 38.1826H350.994C350.994 37.3076 350.864 36.5352 350.604 35.8652C350.358 35.1816 350.003 34.6074 349.538 34.1426C349.087 33.6777 348.547 33.3291 347.918 33.0967C347.289 32.8643 346.605 32.748 345.867 32.748ZM360.038 51V38.3877C360.038 36.3643 359.922 34.6553 359.689 33.2607C359.471 31.8525 359.245 30.793 359.013 30.082H362.704C362.786 30.3008 362.868 30.5879 362.95 30.9434C363.032 31.2852 363.107 31.6475 363.176 32.0303C363.244 32.4131 363.306 32.7891 363.36 33.1582L363.524 34.0811C364.017 33.3701 364.55 32.7412 365.124 32.1943C365.712 31.6475 366.3 31.1895 366.888 30.8203C367.489 30.4375 368.07 30.1504 368.631 29.959C369.205 29.7676 369.725 29.6719 370.189 29.6719C371.051 29.6719 371.775 29.8633 372.363 30.2461C372.965 30.6152 373.45 31.1211 373.819 31.7637C374.202 32.3926 374.476 33.124 374.64 33.958C374.817 34.7783 374.906 35.6396 374.906 36.542L371.625 37.2598C371.598 36.7129 371.529 36.207 371.42 35.7422C371.324 35.2773 371.181 34.874 370.989 34.5322C370.812 34.1904 370.579 33.9307 370.292 33.7529C370.019 33.5615 369.677 33.4658 369.267 33.4658C368.829 33.4658 368.344 33.6299 367.811 33.958C367.277 34.2861 366.751 34.7168 366.231 35.25C365.726 35.7695 365.254 36.3711 364.816 37.0547C364.379 37.7246 364.051 38.4082 363.832 39.1055V51H360.038Z" fill="#E8355A"/>
<g clip-path="url(#clip1_161_2)">
<path d="M32.4253 44.6085C32.4253 46.8214 34.226 48.6221 36.4384 48.6221C38.6517 48.6221 40.4519 46.8214 40.4519 44.6085C40.4519 42.3956 38.6512 40.5955 36.4384 40.5955C34.226 40.5955 32.4253 42.3956 32.4253 44.6085ZM35.0162 42.5266C35.2973 42.2948 35.6899 42.1542 36.1928 42.1049V41.5361H36.7024V42.0898C37.2697 42.1144 37.7827 42.2284 38.2416 42.4317L37.8921 43.3017C37.5056 43.1431 37.109 43.0467 36.7024 43.0116V44.1085C37.1859 44.2942 37.5298 44.4554 37.7341 44.592C37.9384 44.7285 38.0885 44.8781 38.1839 45.0418C38.2793 45.2055 38.327 45.3963 38.327 45.6141C38.327 46.0082 38.1844 46.325 37.8993 46.5639C37.6142 46.8029 37.215 46.9464 36.7025 46.9932V47.7552H36.1929V47.0082C35.588 46.9956 35.0579 46.8893 34.6021 46.6885V45.707C34.8174 45.8134 35.0775 45.9078 35.3807 45.9897C35.6845 46.0715 35.955 46.1197 36.1929 46.1348V44.9822L35.9439 44.8853C35.453 44.6921 35.1056 44.4822 34.9012 44.2553C34.6969 44.0284 34.5945 43.7478 34.5945 43.4134C34.5944 43.0538 34.735 42.7581 35.0162 42.5266Z" fill="#E8355A"/>
<path d="M37.2077 45.6693C37.2077 45.5654 37.1655 45.477 37.0812 45.4052C36.9969 45.3335 36.8704 45.2591 36.7021 45.1824V46.1081C37.039 46.0508 37.2077 45.9047 37.2077 45.6693Z" fill="#E8355A"/>
<path d="M36.1928 43.9001V43.0266C35.8731 43.0733 35.7134 43.2023 35.7134 43.4131C35.7134 43.5221 35.751 43.612 35.8268 43.6828C35.9027 43.7535 36.0247 43.8258 36.1928 43.9001Z" fill="#E8355A"/>
<path d="M41.9931 45.3113C41.9198 48.3188 39.4639 50.7361 36.4388 50.7361C33.4132 50.7361 30.9574 48.3188 30.884 45.3113H30.877V46.5803C30.877 49.6516 33.3669 52.1416 36.4387 52.1416C39.51 52.1416 42 49.6516 42 46.5803V45.3113H41.9931Z" fill="#E8355A"/>
<path d="M16.0538 35.8307H38.2292C39.3939 35.8307 40.3377 34.8869 40.3377 33.7223V32.3167C40.3377 33.4813 39.3939 34.4251 38.2292 34.4251H16.0538C14.8891 34.4251 13.9453 33.4813 13.9453 32.3167V33.7223C13.9453 34.8869 14.8891 35.8307 16.0538 35.8307Z" fill="#E8355A"/>
<path d="M30.877 44.6085C30.877 47.6803 33.3669 50.1703 36.4382 50.1703C39.5095 50.1703 41.9995 47.6803 41.9995 44.6085C41.9995 41.5372 39.5095 39.0472 36.4382 39.0472C33.3669 39.0472 30.877 41.5372 30.877 44.6085ZM41.0864 44.6085C41.0864 47.1713 39.0015 49.2562 36.4382 49.2562C33.8754 49.2562 31.7906 47.1713 31.7906 44.6085C31.7906 42.0457 33.8754 39.9609 36.4382 39.9609C39.0015 39.9609 41.0864 42.0457 41.0864 44.6085Z" fill="#E8355A"/>
<path d="M0.0456911 51.6267C0.0165704 51.4896 0 51.348 0 51.2024V54.2747L0.00549077 54.2807C0.0125503 54.5889 0.0260812 55.0403 0.0456911 54.9478C0.241006 55.8715 1.05972 56.5648 2.04169 56.5648L26.538 56.5634V50.0111L2.04169 50.0096C1.06021 50.0096 0.241496 50.703 0.0456911 51.6267ZM25.5691 51.3716V55.2025L2.04218 55.204C1.42123 55.204 1.01403 55.0298 1.01403 54.3491V52.1267C1.01403 51.5629 1.36799 51.3702 2.04218 51.3702L25.5691 51.3716Z" fill="#E8355A"/>
<path d="M15.233 33.5291C15.485 33.6361 15.7627 33.6948 16.0538 33.6948H38.2292C38.5204 33.6948 38.7975 33.6356 39.05 33.5291C39.4285 33.369 39.7503 33.1019 39.9778 32.765C40.2051 32.4287 40.3377 32.0231 40.3377 31.5862V17.5434C40.3377 16.3788 39.3939 15.4349 38.2292 15.4349H16.0538C14.8891 15.4349 13.9453 16.3788 13.9453 17.5434V31.5867C13.9453 32.0234 14.0779 32.4291 14.3053 32.7655C14.5327 33.1019 14.8545 33.3689 15.233 33.5291ZM23.0303 17.5615H38.148V19.6117H23.0303V17.5615ZM15.9529 17.5615H21.0303V22.6389H15.9529V17.5615ZM15.351 28.3714H38.9321V31.1535H15.351V28.3714Z" fill="#E8355A"/>
<path d="M26.538 37.2364H16.0538C14.1161 37.2364 12.5397 35.6601 12.5397 33.7223V32.3167H12.616C12.5658 32.0787 12.5397 31.8338 12.5397 31.5862V31.3302H2.04169C0.914214 31.3302 0 32.2444 0 33.3719V49.8304C0 49.976 0.0165704 50.1176 0.0456911 50.2545C0.241006 49.3308 1.05972 48.6375 2.04169 48.6375L26.538 48.639V44.609H22.2046C20.7513 44.609 19.573 43.4307 19.573 41.9774C19.573 41.7404 19.6142 41.515 19.673 41.2966C19.9742 42.4181 20.9882 43.2479 22.2046 43.2479H27.8167V37.9838H26.538V37.2364ZM22.1227 42.1883C21.2542 42.1883 20.5504 41.4845 20.5504 40.616C20.5504 39.7475 21.2542 39.0437 22.1227 39.0437C22.9912 39.0437 23.695 39.7475 23.695 40.616C23.695 41.4845 22.9912 42.1883 22.1227 42.1883Z" fill="#E8355A"/>
</g>
</g>
<defs>
<clipPath id="clip0_161_2">
<rect width="377" height="73" fill="white"/>
</clipPath>
<clipPath id="clip1_161_2">
<rect width="42" height="42" fill="white" transform="translate(0 15)"/>
</clipPath>
</defs>
</svg>
