<svg width="60" height="60" viewBox="0 0 60 60" fill="none" xmlns="http://www.w3.org/2000/svg">
<g clip-path="url(#clip0_150_3)">
<g clip-path="url(#clip1_150_3)">
<g clip-path="url(#clip2_150_3)">
<path d="M20.9916 45.6182C20.0582 41.369 18.8968 36.0797 20.1196 30.176C20.1726 29.9212 20.1075 29.6551 19.9428 29.4532C19.7782 29.2503 19.5312 29.1333 19.2703 29.1333H12.3369C11.8576 29.1333 11.4703 29.5216 11.4703 30C11.4703 30.0667 11.4781 30.1309 11.4919 30.1932C12.7078 36.0901 11.5483 41.3723 10.6157 45.6173C9.78546 49.4047 9.12856 52.3947 10.6348 54.2667C11.5857 55.4489 13.2279 56.0001 15.8046 56.0001C18.3812 56.0001 20.0235 55.4497 20.9742 54.2667C22.4797 52.3947 21.8226 49.4047 20.9916 45.6182Z" fill="#8F6730"/>
<path d="M17.1001 4H14.5C14.2609 4 14.0667 4.19409 14.0667 4.43337V8.40273C14.0745 8.44864 14.0814 8.49373 14.0892 8.53964L14.9117 11.007C14.9264 11.0512 14.9333 11.0971 14.9333 11.1439V26.9666C14.9333 27.2058 15.1274 27.4 15.3667 27.4H16.2333C16.4725 27.4 16.6667 27.2059 16.6667 26.9666V11.1439C16.6667 11.0971 16.6745 11.0512 16.6892 11.007L17.5117 8.53964C17.5186 8.49373 17.5264 8.44864 17.5333 8.40273V4.43337C17.5334 4.19409 17.3392 4 17.1001 4Z" fill="#8F6730"/>
</g>
<path fill-rule="evenodd" clip-rule="evenodd" d="M37.7957 53.6078C37.7936 55.8131 39.2556 55.7054 41.0592 55.7075C42.8649 55.7075 44.3289 55.8131 44.331 53.6119C44.331 53.6119 44.3165 21.9892 44.3041 14.4268L37.7729 14.4268L37.7957 53.6078Z" fill="#8F6730"/>
<path fill-rule="evenodd" clip-rule="evenodd" d="M29.028 11.9812L31.5502 12.0019C31.5502 12.0019 32.5276 9.90213 34.0869 9.98703C35.6462 10.0719 36.578 11.9149 36.578 11.9149L45.354 12.064C45.354 12.064 47.2839 9.50869 48.1122 9.50869C48.9405 9.50869 55.8217 11.8797 56.7225 11.8776L56.7225 9.97668C56.7225 9.97668 49.4686 4.27586 48.0646 4.27586C47.2384 4.27793 41.0385 4.30692 36.6402 4.30692C36.6402 4.30692 35.6214 6.43153 34.1718 6.43153C32.7181 6.43153 31.6041 4.27379 31.6041 4.27379C30.0572 4.27586 29.0239 4.27379 29.0239 4.27379C27.9305 4.27793 27.4812 5.36922 27.4812 6.70694L27.4812 9.54803C27.4853 10.8899 27.9388 11.9812 29.028 11.9812Z" fill="#8F6730"/>
</g>
</g>
<defs>
<clipPath id="clip0_150_3">
<rect width="60" height="60" fill="white"/>
</clipPath>
<clipPath id="clip1_150_3">
<rect width="60" height="60" fill="white" transform="translate(2 3)"/>
</clipPath>
<clipPath id="clip2_150_3">
<rect width="14.7333" height="52" fill="white" transform="translate(8 4)"/>
</clipPath>
</defs>
</svg>
