<svg width="60" height="60" viewBox="0 0 60 60" fill="none" xmlns="http://www.w3.org/2000/svg">
<path d="M31.7773 15.0508L30.7904 16.0377L39.2072 16.7615L44.2699 11.6988C45.059 10.9097 46.5067 9.72504 48.6109 8.40991C50.7151 7.09478 52.0955 6.69919 52.6215 7.22524C54.0692 8.67294 52.6215 11.4989 48.2806 15.7746L43.2831 20.7721L44.0069 29.1889L44.9938 28.2673C45.7829 27.413 46.6372 27.413 47.2958 28.0695C48.0849 28.8586 47.7566 29.9759 46.1784 31.5541L44.6003 33.1975L45.3894 38.8536L46.5067 37.6689C47.2306 36.8798 48.0196 36.8798 48.7435 37.5363C49.5326 38.3254 49.4021 39.3123 48.3479 40.3644L45.9807 42.7316C46.9023 49.0442 47.0328 52.5961 46.3089 53.3179C45.9807 53.5809 45.5198 53.8439 44.8612 53.9765C44.2699 54.0417 43.7439 53.9765 43.4135 53.7135C43.1505 53.3852 42.7549 52.2006 42.3614 50.1616C41.9006 48.0574 40.7833 44.5055 38.8095 39.508C36.9031 34.4453 35.5206 31.6172 34.8641 30.8934C34.6011 30.6303 34.2055 30.6303 33.7468 30.8934C33.286 31.0912 31.6426 32.4715 29.0123 35.0365C26.3821 37.6668 23.9496 39.771 21.6476 41.4144C21.5824 41.81 21.7802 43.1251 22.1084 45.2945C22.4367 47.464 22.5693 48.9117 22.504 49.4377C22.3715 49.9638 21.8454 50.6876 20.9911 51.5419C20.5303 52.0028 20.202 52.2658 19.8738 52.331C19.0195 51.4767 17.7043 48.7139 15.9284 44.1772C10.9961 42.0078 8.30063 40.6253 7.77458 40.0993C7.77458 39.8362 8.03761 39.4406 8.49843 38.9819C9.35274 38.1276 10.0766 37.6016 10.6679 37.5342C11.1939 37.4017 12.5743 37.5995 14.7458 37.9951C16.9153 38.3233 18.2304 38.4559 18.6912 38.4559C20.2694 36.0886 23.2279 32.6041 27.8319 28.0001C29.147 26.5524 29.5426 25.6328 29.0818 25.172C28.4232 24.4482 25.5299 23.133 20.5324 21.2266C15.4697 19.3202 11.983 18.0703 9.87879 17.6747C7.77458 17.2139 6.58991 16.8857 6.32689 16.5574C5.99863 16.2944 5.9313 15.7683 6.06386 15.1097C6.12909 14.4511 6.39212 13.9924 6.72248 13.662C7.3811 13.0034 10.9309 13.0707 17.3087 13.9903L19.6107 11.623C20.6628 10.6362 21.6497 10.5057 22.4388 11.2948C23.1626 11.9534 23.0974 12.7425 22.3736 13.4642L21.1889 14.5815L26.845 15.3706L28.4232 13.8577C30.0013 12.2795 31.1186 11.9513 31.9077 12.7404C32.6316 13.4642 32.5663 14.1881 31.7752 15.0424L31.7773 15.0508Z" fill="#4C6780"/>
</svg>
