<!DOCTYPE svg PUBLIC "-//W3C//DTD SVG 1.1//EN" "http://www.w3.org/Graphics/SVG/1.1/DTD/svg11.dtd">
<!-- Uploaded to: SVG Repo, www.svgrepo.com, Transformed by: SVG Repo Mixer Tools -->
<svg fill="#E8355A" height="130px" width="130px" version="1.1" id="Layer_1" xmlns="http://www.w3.org/2000/svg" xmlns:xlink="http://www.w3.org/1999/xlink" viewBox="0 0 428.355 428.355" xml:space="preserve">
<g id="SVGRepo_bgCarrier" stroke-width="0"/>
<g id="SVGRepo_tracerCarrier" stroke-linecap="round" stroke-linejoin="round"/>
<g id="SVGRepo_iconCarrier"> <g> <g> <path d="M330.701,301.975c0,22.569,18.365,40.934,40.929,40.934c22.574,0,40.934-18.365,40.934-40.934 s-18.365-40.929-40.934-40.929C349.066,261.046,330.701,279.406,330.701,301.975z M357.125,280.742 c2.867-2.365,6.871-3.799,12.001-4.301v-5.801h5.197v5.647c5.786,0.251,11.018,1.413,15.698,3.487l-3.564,8.873 c-3.942-1.618-7.987-2.601-12.134-2.959v11.187c4.931,1.894,8.438,3.538,10.522,4.931c2.084,1.393,3.615,2.918,4.588,4.588 c0.973,1.669,1.459,3.615,1.459,5.837c0,4.019-1.454,7.25-4.362,9.687c-2.908,2.437-6.979,3.901-12.206,4.378v7.772h-5.197v-7.619 c-6.17-0.128-11.576-1.213-16.225-3.261v-10.01c2.196,1.085,4.849,2.048,7.941,2.883c3.098,0.835,5.857,1.326,8.284,1.48v-11.755 l-2.54-0.988c-5.007-1.971-8.55-4.111-10.634-6.426c-2.084-2.314-3.128-5.176-3.128-8.586 C352.824,286.118,354.258,283.103,357.125,280.742z"/> <path d="M379.479,312.794c0-1.06-0.43-1.961-1.29-2.693c-0.86-0.732-2.15-1.49-3.866-2.273v9.441 C377.759,316.685,379.479,315.195,379.479,312.794z"/> <path d="M369.126,294.751v-8.909c-3.261,0.476-4.89,1.792-4.89,3.942c0,1.111,0.384,2.028,1.157,2.75 C366.167,293.256,367.411,293.993,369.126,294.751z"/> <path d="M428.283,309.143c-0.748,30.674-25.795,55.327-56.648,55.327c-30.858,0-55.905-24.653-56.653-55.327h-0.072v12.943 c0,31.324,25.395,56.719,56.724,56.719c31.324,0,56.719-25.395,56.719-56.719v-12.943H428.283z"/> <path d="M163.732,212.452h226.166c11.878,0,21.504-9.626,21.504-21.504v-14.336c0,11.878-9.626,21.504-21.504,21.504H163.732 c-11.878,0-21.504-9.626-21.504-21.504v14.336C142.228,202.826,151.854,212.452,163.732,212.452z"/> <path d="M314.911,301.975c0,31.329,25.395,56.724,56.719,56.724s56.719-25.395,56.719-56.724 c0-31.324-25.395-56.719-56.719-56.719C340.306,245.256,314.911,270.651,314.911,301.975z M419.036,301.975 c0,26.138-21.263,47.401-47.406,47.401c-26.138,0-47.401-21.263-47.401-47.401c0-26.138,21.263-47.401,47.401-47.401 C397.773,254.574,419.036,275.837,419.036,301.975z"/> <path d="M0.466,373.553C0.169,372.155,0,370.711,0,369.226v31.334l0.056,0.061c0.072,3.144,0.21,7.747,0.41,6.804 c1.992,9.421,10.342,16.492,20.357,16.492l249.836-0.015v-66.826l-249.836-0.015C10.813,357.061,2.463,364.132,0.466,373.553z M260.777,370.952v39.071l-239.949,0.015c-6.333,0-10.486-1.777-10.486-8.719v-22.666c0-5.75,3.61-7.716,10.486-7.716 L260.777,370.952z"/> <path d="M155.361,188.977c2.57,1.091,5.402,1.69,8.371,1.69h226.166c2.97,0,5.796-0.604,8.371-1.69 c3.86-1.633,7.142-4.357,9.462-7.793c2.319-3.43,3.671-7.567,3.671-12.022V25.94c0-11.878-9.626-21.504-21.504-21.504H163.732 c-11.878,0-21.504,9.626-21.504,21.504v143.227c0,4.454,1.352,8.591,3.671,12.022C148.219,184.62,151.501,187.343,155.361,188.977 z M234.885,26.125h154.184v20.91H234.885V26.125z M162.703,26.125h51.784v51.784h-51.784V26.125z M156.564,136.374h240.502v28.375 H156.564V136.374z"/> <path d="M270.659,226.788H163.732c-19.763,0-35.84-16.077-35.84-35.84v-14.336h0.778c-0.512-2.427-0.778-4.925-0.778-7.45v-2.611 H20.823C9.324,166.551,0,175.875,0,187.374v167.859c0,1.485,0.169,2.929,0.466,4.326c1.992-9.421,10.342-16.492,20.357-16.492 l249.836,0.015V301.98h-44.196c-14.822,0-26.839-12.017-26.839-26.839c0-2.417,0.42-4.716,1.019-6.943 c3.072,11.438,13.414,19.901,25.82,19.901h57.237v-53.688h-13.041V226.788z M225.628,277.292c-8.858,0-16.036-7.178-16.036-16.036 s7.178-16.036,16.036-16.036s16.036,7.178,16.036,16.036S234.486,277.292,225.628,277.292z"/> </g> </g> </g>
</svg>